<?xml version="1.0" encoding="UTF-8"?>
<!DOCTYPE svg  PUBLIC '-//W3C//DTD SVG 20010904//EN'  'http://www.w3.org/TR/2001/REC-SVG-20010904/DTD/svg10.dtd'>
<svg width="128pt" height="128pt" version="1.0" viewBox="0 0 128 128" xmlns="http://www.w3.org/2000/svg">
<g transform="translate(0 128) scale(.1 -.1)">
<path d="m577 1261c-26-11-54-25-62-31-7-6-35-55-60-108-26-53-67-127-91-164s-44-73-44-80c0-17-98-224-131-277-16-24-31-56-34-71s-15-45-26-66c-31-62-27-166 11-240 27-55 112-154 132-154 4 0 8-13 8-30 0-31 20-43 20-12 1 16 1 16 14-1 9-11 26-17 52-16 37 2 37 2 9 8-55 11-179 136-224 225-35 71-42 149-15 182 15 18 15 17 10-14-4-24-2-32 7-30 6 3 13 21 15 41 2 28 11 43 33 59 40 30 40 57-1 28l-30-21v23c0 13 6 32 14 43 7 11 37 65 65 120 29 55 54 101 55 102 2 2 18-4 36-13s40-17 49-18c25-2 78-34 84-50 12-31-9-124-36-156-32-37-44-77-29-92 6-6 39-13 73-15 48-2 67 1 81 14s21 14 30 5c15-15 64-16 73-2 4 6-3 26-15 45-33 53-31 144 3 189 24 31 32 34 94 41 37 3 87 5 110 4 41-3 78 15 67 32-3 5-50 7-104 5-123-6-161-22-197-83-23-39-25-52-20-109 3-39 11-72 21-83 27-30 20-44-14-26-37 19-49 19-72-2-15-14-24-14-54-5-20 6-42 8-50 5-21-8-17 4 21 61 32 48 35 60 35 124 0 83-6 102-31 102-10 0-19 3-19 8-1 14-53 45-83 48-17 2-33 6-36 9s6 26 19 51c34 62 88 93 180 103 102 11 133 6 213-32 40-19 83-38 97-42 38-11 169-101 223-153 47-46 55-65 38-90-7-12-12-12-30 0-20 11-24 11-37-6-16-23-19-122-4-131 6-3 10-37 10-75s5-72 10-75c6-4 10 19 10 62 0 77 8 113 23 113 21 0 36 37 37 86 0 27 4 54 8 60 9 9 16 33 47 154 10 38 19 123 23 204 6 159 8 153-97 202-50 23-68 25-260 29-186 4-211 3-254-14zm398-7c76-7 147-33 183-66 36-35 30-149-20-378-12-52-23-97-24-99-2-2-13 8-25 23-55 69-209 167-332 209-16 6-17 9-2 37 19 37 41 38 89 5l36-25 20 33 20 32-25 23c-15 12-39 22-55 22-39 0-44 13-20 52 20 33 27 68 13 68-5 0-18 3-29 6-17 4-26-2-43-30-21-33-25-36-60-30-33 5-40 3-55-21-21-32-15-52 19-65 26-10 26-10 8-35-17-23-24-24-113-25-53 0-100-4-105-9-6-4-22-11-36-15-26-6-25-3 32 107 32 61 62 119 67 127 36 60 193 79 457 54zm85-629c10-12 10-15-4-15-9 0-16 7-16 15s2 15 4 15 9-7 16-15z"/>
<path d="m493 903c-53-10-16-18 71-15 90 4 97 3 131-23 47-36 60-22 15 16-32 27-40 29-115 28-44-1-90-4-102-6z"/>
<path d="m516 831c-6-8 114-25 122-16 8 8-48 25-83 25-19 0-36-4-39-9z"/>
<path d="m364 722c-16-10-34-48-34-71 0-51 101-46 121 6 12 33 13 31-23 53s-47 24-64 12zm46-43c0-11-27-12-34 0-3 4-3 11 0 14 8 8 34-3 34-14zm-40-34c11-13 10-14-4-9-9 3-16 10-16 15 0 13 6 11 20-6z"/>
<path d="m745 713c-35-9-44-22-38-61 8-51 19-62 64-62 73 0 105 68 53 109-26 21-40 23-79 14zm38-20c-7-2-13-9-13-15s7-8 15-4c8 3 15 1 15-5 0-15-30-23-42-11-13 13 6 43 26 41 7 0 6-2-1-6zm35-70c-7-8-25-13-46-11-55 5-48 23 8 24 42 1 48-1 38-13z"/>
<path d="m311 447c-72-89-105-215-66-247 19-16 34-5 17 12-32 32-1 136 63 214 33 40 44 65 28 63-5 0-23-19-42-42z"/>
<path d="m690 450c0-6 16-40 35-76 39-72 39-97-1-135-21-20-33-49-19-49 3 0 19 15 35 33 48 53 48 80 4 164-36 67-54 88-54 63z"/>
<path d="m944 438c3-13 6-49 6-80 0-32 5-58 10-58 11 0 14 118 4 144-9 25-27 19-20-6z"/>
<path d="m1010 302c-13-20-47-62-75-93-27-31-59-68-71-82-15-18-34-27-70-32-27-3-74-14-104-25-62-20-187-48-240-53-25-3-19-4 17-5 58-2 129 11 217 39 33 10 72 19 87 19 24 0 28-5 32-32l3-33 8 32c6 22 20 40 42 54 19 11 34 25 34 31 0 17 57 83 84 98 14 7 26 18 26 23 0 6 11 25 25 43 25 32 32 54 18 54-5 0-19-17-33-38z"/>
<path d="m335 270c-4-7 57-10 175-10s179 3 175 10c-4 6-73 10-175 10s-171-4-175-10z"/>
</g>
</svg>
